<svg width="628" height="267" viewBox="0 0 628 267" fill="none" xmlns="http://www.w3.org/2000/svg">
<mask id="mask0_220_950" style="mask-type:alpha" maskUnits="userSpaceOnUse" x="243" y="69" width="385" height="12">
<rect x="243" y="69" width="385" height="12" fill="#C4C4C4"/>
</mask>
<g mask="url(#mask0_220_950)">
<path d="M300.828 66.462L301.769 66.3039L299.938 66.0771L300.816 65.9111C301.696 65.9126 302.836 66.1613 303.457 66.0292C303.533 65.9012 302.574 65.8601 302.33 65.7582C302.113 65.6537 301.937 65.5499 301.802 65.448C302.281 65.4491 302.808 65.4737 303.352 65.5205C304.083 65.5968 304.799 65.6339 305.423 65.6277C306.699 65.6483 307.931 65.6278 309.318 65.6323L308.856 65.3243L310.643 65.3964C310.833 65.4198 311.058 65.3821 311.245 65.4111C312.793 65.6567 313.449 65.5229 314.192 65.4119C314.345 65.3832 314.528 65.3618 314.738 65.3482C316.805 65.407 318.668 65.7512 320.528 65.9279C320.879 65.9731 321.215 66.031 321.512 66.0976C322.16 66.227 322.879 66.3328 323.606 66.405C324.333 66.4773 325.043 66.5138 325.672 66.5113C327.064 66.5084 328.635 66.5941 330.235 66.7599C330.711 66.8146 331.188 66.8506 331.634 66.8657C332.08 66.8809 332.486 66.8748 332.827 66.8479L333.908 67.0237C334.377 66.9524 334.972 66.9133 335.656 66.9087C336.341 66.9041 337.1 66.9342 337.889 66.9972C338.73 67.0654 339.583 67.1115 340.456 67.1837C342.257 67.3217 344.011 67.4061 345.661 67.4343C348.119 67.5177 350.521 67.5823 353.001 67.6864C354.552 67.7366 356.064 67.7643 357.527 67.7692C359.279 67.7888 361.174 67.8839 363.121 68.05C363.029 68.2058 362.175 68.1597 361.602 68.1545C359.754 68.1286 357.862 68.0615 355.96 68.0111C355.103 67.9914 354.27 67.984 353.466 67.9888C352.12 67.9823 350.702 67.9408 349.235 67.865C346.918 67.7815 344.675 67.7414 342.529 67.745C342.361 67.7512 342.206 67.7621 342.069 67.7776C342.04 67.7911 342.035 67.808 342.053 67.8268C342.07 67.8457 342.111 67.8658 342.171 67.8852C342.231 67.9046 342.308 67.9227 342.395 67.9377C342.481 67.9527 342.575 67.9642 342.666 67.971C343.518 68.0766 344.434 68.19 345.238 68.2059C345.269 68.2071 345.302 68.2099 345.335 68.2139C345.367 68.218 345.399 68.2233 345.427 68.2294C347.227 68.4523 348.706 68.4146 350.108 68.4508C352.435 68.5488 354.679 68.5946 356.805 68.5875C357.126 68.5879 357.473 68.6007 357.833 68.6252C360.059 68.7247 362.141 68.7358 363.981 68.6581C364.738 68.6384 365.442 68.5942 366.256 68.5935C366.757 68.5904 367.193 68.5622 367.538 68.5105C367.883 68.4589 368.13 68.3848 368.264 68.2928C368.607 68.3412 368.956 68.3844 369.305 68.4218C369.514 68.4432 369.715 68.4488 369.866 68.4377C370.017 68.4265 370.108 68.3992 370.121 68.3615C370.183 68.2558 369.706 68.2027 369.293 68.1574C369.542 68.1348 369.823 68.1214 370.13 68.1177C371.854 68.0936 373.703 68.1221 375.637 68.2026C377.138 68.2991 378.337 68.2206 379.917 68.3565C380.107 68.38 380.262 68.3456 380.437 68.3373C380.891 68.2938 381.458 68.284 382.087 68.3088C382.716 68.3336 383.388 68.3923 384.046 68.4798C384.865 68.2408 386.635 68.5138 387.942 68.5383C388.345 68.6598 387.883 68.6385 387.863 68.6718C387.843 68.7052 387.863 68.6718 387.705 68.6523C386.4 68.8243 384.612 68.8619 382.593 68.7596C382.219 68.76 381.863 68.7678 381.528 68.783C381.021 68.8045 380.449 68.8023 379.838 68.7767C379.169 68.7578 378.556 68.7668 378.026 68.8031C377.721 68.8025 377.463 68.8207 377.276 68.856C377.09 68.8914 376.98 68.9427 376.957 69.0052C377.161 69.0534 377.386 69.0975 377.625 69.1357C378.873 69.2867 380.118 69.3492 381.114 69.3109C382.847 69.245 384.91 69.3093 386.753 69.2868C387.999 69.2777 389.325 69.3037 390.706 69.3643C390.706 69.3643 390.67 69.4255 390.666 69.4311C390.83 69.4576 391.001 69.4788 391.172 69.4936C391.172 69.4936 391.172 69.4936 391.188 69.4658C391.112 69.4391 391.01 69.414 390.892 69.3933L390.482 69.3425C390.761 69.3293 391.021 69.2899 391.312 69.314C391.924 69.3587 392.51 69.3775 393.033 69.3695C393.556 69.3614 394.006 69.3265 394.356 69.2669C394.976 69.1906 395.747 69.1559 396.619 69.165C397.287 69.1567 397.931 69.1388 398.548 69.1114C398.548 69.1114 398.588 69.0446 398.88 69.0091C398.603 68.9654 398.315 68.9296 398.028 68.9036C396.779 68.8384 395.526 68.7789 394.299 68.7343C393.847 68.7295 393.422 68.737 393.032 68.7566C391.952 68.7795 390.738 68.747 389.462 68.6609C389.462 68.6609 389.21 68.6296 389.084 68.614C389.442 68.4672 390.676 68.6141 391.176 68.5147C391.479 68.5166 392.014 68.5291 391.996 68.5029C391.954 68.468 391.949 68.4355 391.981 68.4079C392.013 68.3803 392.082 68.3581 392.181 68.3431C392.281 68.328 392.409 68.3204 392.558 68.3208C392.706 68.3212 392.87 68.3296 393.038 68.3453C394.443 68.4306 395.767 68.4543 396.928 68.415C397.368 68.4158 397.861 68.441 398.298 68.4474C398.565 68.455 398.81 68.4507 399.017 68.4349C400.072 68.3181 401.492 68.3096 403.064 68.4106C403.824 68.4469 404.533 68.4517 405.157 68.4249C405.6 68.4201 405.788 68.5031 406.104 68.5422L407.444 68.6246L405.723 68.7279C406.091 68.9646 406.383 69.0426 406.984 69.0574C407.862 69.0796 408.716 69.0897 409.542 69.0875C410.153 69.0855 410.658 69.0346 411.485 69.1251C411.631 69.1399 411.772 69.1446 411.884 69.1386C412.853 69.0583 414.02 69.0398 415.305 69.0846C415.97 68.9341 417.103 69.0804 418.152 69.1983C418.49 69.0849 417.877 69.0329 417.511 68.9637C418.388 68.9708 419.272 68.9667 420.177 68.9833C420.449 68.9773 420.76 68.9876 421.086 69.0134C421.412 69.0392 421.743 69.0799 422.054 69.1322C422.205 69.166 422.388 69.1914 422.564 69.2032C422.74 69.215 422.896 69.2122 422.999 69.1955C423.469 69.1462 424.221 69.1916 424.61 69.1083C424.748 69.0892 424.945 69.0865 425.166 69.1008C425.387 69.115 425.618 69.1453 425.817 69.1862C425.599 69.199 425.405 69.2191 425.24 69.2461C424.645 69.3337 424.864 69.4802 425.619 69.6931C426.778 69.6814 427.962 69.6847 429.036 69.6446C429.635 69.6086 430.369 69.6198 431.155 69.6771C431.941 69.7344 432.748 69.8354 433.486 69.9689C433.753 70.0202 434.058 70.0557 434.339 70.0684C434.62 70.0811 434.858 70.0701 435.005 70.0374C435.096 69.9997 435.124 69.952 435.087 69.8984L434.329 69.8045C434.329 69.8045 434.359 69.7545 434.366 69.7433L435.455 69.7349C436.031 69.7346 436.632 69.7494 437.177 69.7452C437.977 69.7172 438.891 69.7328 439.861 69.7909C440.756 69.8505 441.636 69.8956 442.492 69.9257C443.321 69.9567 443.922 69.8579 444.71 69.8421C445.307 69.8302 445.963 69.8429 446.654 69.8797C447.847 69.945 448.942 69.9452 449.839 69.8801C450.885 70.2306 451.393 70.2876 452.364 70.1929L452.821 70.1658L452.946 70.241L453.295 70.2245C453.947 70.2098 454.6 70.195 455.281 70.1898C456.227 70.2223 457.25 70.3098 458.248 70.4438C458.437 70.4673 458.695 70.547 458.861 70.6094C459.028 70.6718 459.39 70.86 459.657 70.9826C459.366 71.0721 459.045 71.1576 458.814 71.2605C458.791 71.278 458.793 71.299 458.821 71.3216C458.848 71.3443 458.9 71.368 458.972 71.3909C459.045 71.4137 459.135 71.4351 459.236 71.4533C459.338 71.4715 459.447 71.486 459.556 71.4956C459.768 71.5164 459.978 71.5302 460.176 71.5366C461.151 71.5475 462.085 71.5394 462.969 71.5122C463.291 71.474 463.733 71.4703 464.224 71.5019C464.715 71.5335 465.227 71.5985 465.678 71.6866C466.834 71.6337 468.178 71.6493 469.616 71.7323C471.137 71.6818 472.974 71.784 474.395 71.6733C474.362 71.7289 474.509 71.8247 474.713 71.8799C475.037 71.9637 475.403 72.0414 475.797 72.1097L478.802 72.243C478.914 72.3115 479.054 72.3809 479.221 72.4502C479.335 72.5049 479.534 72.5585 479.775 72.5996C480.017 72.6406 480.282 72.6659 480.514 72.67C481.112 72.6904 481.613 72.6449 482.326 72.7571C481.228 72.8632 479.748 72.8491 478.148 72.7174C476.645 72.6172 475.199 72.5671 473.864 72.569C473.424 72.5683 472.844 72.5741 472.707 72.6347C472.402 72.806 471.605 72.7789 470.675 72.7473C469.944 72.7127 469.277 72.7166 468.727 72.7587C468.178 72.8007 467.763 72.8796 467.515 72.9891C467.453 73.0948 467.603 73.185 468.244 73.2465L470.911 73.4932C471.304 73.4614 471.676 73.4239 472.028 73.3807C472.619 73.3233 473.35 73.3076 474.163 73.3347C474.975 73.3618 475.848 73.431 476.713 73.537C477.155 73.5917 477.597 73.6465 477.918 73.6205C478.199 73.5906 478.458 73.5548 478.693 73.5134C478.74 73.4857 478.759 73.4537 478.749 73.4188C478.919 73.4351 479.089 73.4562 479.254 73.4814C480.57 73.7758 481.59 73.7708 482.516 73.6944C482.767 73.6717 482.958 73.6356 483.212 73.6073C483.466 73.5791 483.555 73.5424 483.786 73.5531C485.627 73.6496 486.157 73.3271 487.708 73.34C487.783 73.3274 487.83 73.3086 487.844 73.2853C487.858 73.2619 487.838 73.2349 487.787 73.2065C487.677 73.1809 487.551 73.1589 487.418 73.1425C487.286 73.1261 487.152 73.1159 487.029 73.1127C486.315 73.0713 485.685 73.084 485.246 73.1486C484.935 73.175 484.605 73.196 484.26 73.2116L482.706 72.7445C484.211 72.7873 485.634 72.787 486.943 72.7437C487.228 72.7193 487.712 72.7613 488.114 72.7692L491.07 72.8129C491.678 72.8165 492.196 72.7433 493.043 72.914C493.043 72.914 493.603 72.9415 493.752 72.9182C493.902 72.8949 494.564 72.75 494.959 72.6555C495.417 72.6825 496.052 72.7551 496.337 72.7307C496.836 72.6709 497.268 72.5942 497.625 72.502L499.411 72.6336C499.409 72.7505 499.344 72.8605 499.216 72.9619C499.077 73.0597 499.082 73.177 499.23 73.3044C499.379 73.4317 499.666 73.5655 500.07 73.6946L501.833 74.3789C502.121 74.4247 502.428 74.4555 502.712 74.4672C502.996 74.4789 503.243 74.4708 503.421 74.4441C504.18 74.3649 505.03 74.303 505.788 74.2237C506.767 74.3449 506.515 74.5407 507.227 74.7125L509.531 74.9979C509.883 75.2624 510.241 75.5158 509.172 75.6043C508.96 75.6198 509.103 75.7211 508.909 75.7628C509.74 75.9613 510.654 76.0207 511.496 76.143C511.828 76.2309 512.106 76.324 512.316 76.4177C512.547 76.5588 513.014 76.703 513.617 76.819C514.221 76.9351 514.911 77.0138 515.54 77.038C516.596 77.1123 517.676 77.2239 518.734 77.3678C519.095 77.4179 519.466 77.4543 519.822 77.4747C520.178 77.4951 520.511 77.4991 520.798 77.4862C521.821 77.4635 522.687 77.3856 523.34 77.2575C523.985 77.1488 524.855 77.0964 525.87 77.1051C527.607 77.3201 527.957 77.6442 529.008 77.9296L527.193 77.9616C527.127 78.0729 527.247 78.2132 526.503 78.2106C525.759 78.208 526.136 78.3145 526.377 78.422C526.462 78.4761 526.628 78.5317 526.847 78.5795C527.066 78.6273 527.324 78.6642 527.578 78.6841L529.123 78.8217C529.671 78.8741 530.201 78.8965 530.655 78.8864C531.109 78.8763 531.47 78.8341 531.698 78.7645C531.96 78.6984 532.321 78.6537 532.759 78.6331C533.317 78.5792 533.776 78.499 534.119 78.3955L536.301 78.5462C536.393 78.4423 536.693 78.3694 537.149 78.3399C537.605 78.3104 538.189 78.3261 538.803 78.3843L540.273 78.4768C541.907 78.5777 542.266 78.5445 542.745 78.2515L540.784 77.728C541.069 77.5901 541.344 77.4689 541.62 77.3477C541.131 77.1753 540.48 77.0122 539.731 76.8749C539.032 76.7275 538.314 76.5847 537.579 76.4471C536.781 76.3065 535.938 76.1842 534.948 76.0257C534.775 75.9745 534.524 75.8836 534.203 75.7961C533.882 75.7111 533.547 75.6277 533.199 75.5463C533.265 75.4351 533.324 75.3349 533.197 75.2058C533.807 75.247 534.437 75.3191 535.031 75.4155C535.625 75.512 536.163 75.6298 536.597 75.7583C536.67 75.7811 536.76 75.8025 536.86 75.821C536.96 75.8396 537.068 75.8549 537.178 75.8659C538.249 75.9449 538.761 76.1099 539.285 76.3121C539.638 76.4155 540.093 76.5073 540.587 76.5748C541.534 76.6921 542.461 76.8428 543.367 76.9729C543.644 77.0162 543.932 77.0519 544.219 77.0785C545.166 77.1628 546.118 77.2808 547.029 77.4265C547.326 77.4635 547.611 77.5124 547.86 77.5693C548.11 77.6261 548.316 77.6892 548.462 77.7532C548.236 77.8234 548.115 77.9119 548.104 78.0135C548.065 78.0803 548.73 78.2164 549.044 78.315C549.358 78.4137 548.742 78.3672 548.533 78.3771C547.674 78.3962 547.515 78.4362 548.029 78.6551C548.201 78.724 548.315 78.7928 548.364 78.8575C548.413 78.9221 548.396 78.9812 548.315 79.0309C548.193 79.2367 547.821 79.4058 547.566 79.6071C547.962 79.7397 548.624 79.8814 548.696 80.0456C548.731 80.082 548.804 80.1206 548.91 80.1586C549.017 80.1965 549.154 80.2329 549.311 80.2651C549.727 80.3346 550.105 80.4177 550.416 80.508C550.726 80.5983 550.962 80.6933 551.104 80.7857C551.15 80.824 551.262 80.8645 551.418 80.8993C551.573 80.934 551.76 80.9604 551.942 80.9731C552.158 80.9887 552.352 80.9867 552.484 80.9674C552.615 80.948 552.673 80.913 552.647 80.8694C552.652 80.7874 552.624 80.702 552.561 80.6139C552.597 80.5527 552.634 80.4915 552.49 80.3901C553.138 80.4271 553.817 80.5012 554.455 80.6045C555.093 80.7077 555.664 80.836 556.108 80.9756C556.599 81.1199 557.051 81.2715 557.595 81.4404C557.483 81.6295 557.483 81.6295 558.64 81.964L564.779 82.1271L566.037 82.3486C567.21 82.5417 567.489 82.5284 568.226 82.4286L568.722 82.3348C569.764 82.4638 570.964 82.6124 571.615 82.3706C571.827 82.5282 571.965 82.5811 571.917 82.6051C571.606 82.8376 571.065 83.0349 570.317 83.1892C570.126 83.2253 569.992 83.2803 569.769 83.3125C569.052 83.4941 568.886 83.7747 569.304 84.097C569.512 84.2396 569.814 84.3856 570.2 84.5303C569.635 84.7312 568.887 84.8976 567.975 85.0252C567.201 85.1238 566.564 85.2559 566.082 85.4177C565.649 85.5809 565 85.7035 564.174 85.7786C563.754 85.8105 563.448 85.8735 563.286 85.9613C563.238 86.1989 563.349 86.4533 563.616 86.7188C563.667 86.7996 563.81 86.8869 564.035 86.9738C564.26 87.0607 564.56 87.1449 564.912 87.2197C564.912 87.2197 565.082 87.2766 565.163 87.3106C565.231 87.5983 564.977 87.8519 564.418 88.0543C564.326 88.1117 564.138 88.1532 563.875 88.1742C563.612 88.1953 563.283 88.1951 562.923 88.1738C562.164 88.1395 561.455 88.1353 560.721 88.116C559.93 88.0888 559.233 88.1102 558.704 88.1782C558.175 88.2461 557.833 88.3579 557.714 88.502C557.706 88.5427 557.683 88.5818 557.644 88.6188C557.622 88.6379 557.61 88.6584 557.608 88.68L559.294 89.1516L557.387 89.3393C557.275 89.5285 558.19 89.6419 558.649 89.7823L558.365 89.8607C558 89.905 557.508 89.8202 557.063 89.771L556.621 89.7163L556.568 89.8053C556.293 89.9265 555.29 89.7903 554.898 89.8791C554.507 89.968 554.786 90.0683 555.373 90.1648C555.78 90.2366 556.218 90.2938 556.653 90.3322C557.088 90.3706 557.509 90.3891 557.885 90.3864C558.109 90.3769 558.294 90.3552 558.431 90.3226C559.222 90.184 560.097 90.0648 561.048 89.966C561.777 89.8772 562.69 89.8395 563.723 89.8554C564.026 89.8487 564.391 89.8697 564.755 89.9147C565.119 89.9598 565.458 90.026 565.712 90.1017L566.247 90.1142C566.247 90.1142 566.539 90.1922 566.498 90.205C566.294 90.4362 566.531 90.7189 567.172 91.0111L566.614 91.0376C565.817 91.0105 566.323 91.1866 566.203 91.2734C565.637 91.257 564.901 91.1837 564.633 91.2938L564.231 91.2858L564.388 91.3054L564.579 91.2693L565.329 91.4338C564.974 91.4615 564.716 91.4953 564.403 91.5102C564.229 91.5231 564.091 91.546 563.997 91.5774C563.903 91.6088 563.854 91.6481 563.854 91.693C563.855 91.762 563.761 91.8201 563.582 91.8617C563.403 91.9033 563.145 91.9271 562.832 91.9307C562.458 91.9322 562.244 92.0072 562.025 92.0339L562.977 92.4862C562.977 92.4862 562.503 92.4275 562.761 92.5072L562.794 92.4516L563.371 92.5648C563.787 92.6641 564.077 92.6881 564.323 92.617C564.568 92.5459 564.512 92.6405 564.63 92.6133C564.587 92.6856 564.32 92.7361 564.091 92.7794C563.826 92.8134 563.527 92.8385 563.2 92.8541C563.79 93.1722 563.819 93.1816 562.956 93.2658C562.092 93.35 562.39 93.4765 561.668 93.4945C560.945 93.5126 561.767 93.7278 562.25 93.7697C562.609 93.7973 562.974 93.8403 563.321 93.8957C563.669 93.9511 563.99 94.0176 564.263 94.0906L564.118 94.3354C563.905 94.3152 563.692 94.2888 563.486 94.2572C562.786 94.1228 562.15 93.9962 561.527 94.0743L561.824 94.2604L559.651 94.1525C559.707 94.2919 560.039 94.4507 560.575 94.5953C560.494 94.6748 560.444 94.7585 560.426 94.8457C560.39 94.9069 560.176 94.8684 560.036 94.875C559.539 94.8853 559.13 94.9267 558.847 94.9958C558.564 95.0648 558.415 95.1594 558.412 95.2711C558.356 95.3656 559.121 95.5619 559.599 95.5554C560.793 95.5743 562.085 95.6471 563.403 95.7698C564.207 95.7857 564.32 95.537 565.643 95.7068C565.669 95.8216 565.5 95.9146 565.16 95.9717C564.821 96.0288 564.33 96.0468 563.761 96.0231C564.085 96.2782 565.875 96.3447 565.954 96.6113C565.508 96.5924 565.032 96.5481 564.571 96.4827C564.111 96.4173 563.682 96.3331 563.329 96.2383C563.252 96.215 563.157 96.1934 563.05 96.1757C562.944 96.158 562.83 96.1447 562.72 96.137C562.609 96.1293 562.506 96.1274 562.419 96.1316C562.332 96.1358 562.264 96.1459 562.222 96.161C562.47 96.2574 562.743 96.3688 563.054 96.473C563.365 96.5772 563.44 96.6223 563.664 96.6442C565.337 96.8514 566.133 97.2246 567.58 97.4696C567.959 97.5165 568.006 97.6657 567.678 97.6488C567.365 97.632 567.081 97.6342 566.86 97.6552C566.638 97.6762 566.486 97.7152 566.421 97.7679C566.178 97.8293 565.876 97.8782 565.521 97.9133C567.006 98.2963 568.776 98.6347 570.666 98.8968C571.023 98.9486 571.397 98.9801 571.73 98.9869C572.785 98.9872 573.904 99.0176 575.066 99.0774C575.477 99.0937 575.858 99.0922 576.186 99.0729C577.264 99.0272 578.12 99.1273 578.902 99.4092L580.195 99.8561C580.153 99.9284 579.935 100.009 579.768 100.12L580.779 100.358L588.492 99.8087L590.04 100.341L592.261 100.311C592.431 100.327 592.602 100.348 592.766 100.374C593.215 100.531 593.566 100.682 594.053 100.832C594.54 100.982 595.411 101 596.018 101.177C596.625 101.353 597.232 101.357 597.983 101.462C598.054 101.599 597.981 101.722 597.769 101.824C597.7 101.94 597.318 102.013 597.252 102.124C597.26 102.236 597.118 102.332 596.84 102.402C596.562 102.472 596.156 102.514 595.66 102.524C594.27 102.763 592.594 102.934 590.683 103.03C590.515 103.037 590.376 103.053 590.274 103.078C590.172 103.102 590.11 103.134 590.091 103.172C590.094 103.281 589.966 103.375 589.718 103.448C589.47 103.521 589.107 103.57 588.656 103.591C588.536 103.596 588.446 103.609 588.396 103.631C588.225 103.645 588.1 103.671 588.034 103.707C587.968 103.743 587.963 103.789 588.019 103.838C588.074 103.888 588.19 103.94 588.353 103.99C588.516 104.04 588.722 104.086 588.951 104.124C589.283 104.184 589.622 104.242 589.966 104.297C589.947 104.33 589.605 104.336 589.654 104.366C589.79 104.462 589.821 104.552 589.746 104.629C589.671 104.705 589.492 104.767 589.223 104.808L591.066 105.586C592.185 105.694 593.283 105.876 594.151 106.099C594.152 106.136 594.102 106.166 594.006 106.188C593.91 106.21 593.771 106.222 593.603 106.223C593.153 106.239 592.728 106.269 592.243 106.287C591.947 106.3 591.7 106.329 591.518 106.372C591.335 106.415 591.221 106.471 591.18 106.538L592.262 106.827C591.916 106.897 591.658 106.931 591.429 106.975C591.559 107.065 591.782 107.16 592.082 107.249C592.381 107.339 592.748 107.423 593.155 107.493C593.265 107.507 593.376 107.518 593.483 107.524C593.59 107.53 593.69 107.532 593.778 107.528C594.617 107.429 595.597 107.604 596.549 107.77C597.502 107.936 598.019 108.035 598.722 108.164L600.067 108.182C600.407 108.243 600.711 108.314 600.954 108.391C601.197 108.468 601.372 108.548 601.465 108.624C601.393 108.746 600.755 108.679 600.375 108.692C599.473 108.768 598.287 108.752 597.013 108.646C596.698 108.606 596.374 108.638 596.067 108.642C595.404 108.657 594.767 108.682 594.159 108.716C593.758 108.748 593.384 108.787 593.038 108.834C592.946 108.99 594.4 109.11 593.575 109.187C593.859 109.222 593.965 109.271 594.111 109.254C595.047 109.355 595.969 109.405 596.771 109.398C598.309 109.376 600.055 109.447 601.867 109.605C603.822 109.768 605.698 109.837 607.339 109.805C607.965 109.803 608.663 109.837 609.383 109.903C610.232 109.994 611.075 110.052 611.858 110.072C612.117 110.073 612.406 110.088 612.7 110.118C612.995 110.147 613.288 110.189 613.554 110.24C613.531 110.279 613.277 110.307 613.334 110.326C614.144 110.618 614.472 110.921 615.719 111.219C616.571 111.325 617.55 111.446 618.107 111.306C618.665 111.166 618.465 111.046 617.356 110.687C617.596 110.682 617.886 110.699 618.175 110.735C618.463 110.77 618.732 110.823 618.934 110.883L619.894 111.151L620.758 111.407C620.682 111.535 620.623 111.635 620.56 111.741C620.461 111.853 620.57 111.99 620.871 112.132C621.052 112.209 621.211 112.287 621.344 112.364C621.884 112.671 622.041 112.961 621.796 113.202C621.326 113.548 620.672 113.867 619.842 114.154C618.965 114.434 618.484 114.786 617.762 115.091C617.393 115.23 616.945 115.354 616.423 115.463C615.433 115.704 614.348 115.934 613.354 116.181C612.36 116.429 611.238 116.606 610.135 116.81C608.492 117.052 606.716 117.261 604.817 117.435C603.642 117.588 602.435 117.737 601.348 117.913C600.064 118.112 598.556 118.254 596.861 118.337C595.364 118.436 594.026 118.583 592.874 118.775C592.753 118.796 592.658 118.822 592.59 118.853C592.383 119.049 591.801 119.186 590.935 119.245C590.987 119.303 591.055 119.361 591.136 119.42C591.257 119.49 591.282 119.555 591.208 119.608C591.135 119.661 590.966 119.698 590.724 119.715C590.031 119.763 589.455 119.846 589.021 119.958C588.862 119.986 588.763 120.027 588.733 120.077C588.704 120.128 588.743 120.186 588.85 120.247C588.944 120.31 588.951 120.368 588.87 120.413C588.788 120.458 588.623 120.489 588.394 120.501C587.807 120.561 587.179 120.609 586.513 120.645C585.096 120.724 583.449 120.723 581.669 120.642C581.48 120.618 581.289 120.654 581.068 120.627C579.809 120.536 578.641 120.522 577.703 120.587C576.604 120.612 575.455 120.607 574.295 120.618C572.621 120.61 571.076 120.658 569.704 120.76C568.136 120.662 567.255 120.833 565.931 120.837C564.709 120.854 563.551 120.896 562.468 120.963C560.721 121.051 558.981 121.128 557.259 121.232C555.644 121.281 554.157 121.375 552.823 121.512C552.312 121.574 551.387 121.478 551.038 121.608C550.69 121.738 549.988 121.722 549.42 121.766L547.628 121.872C547.32 121.898 546.982 121.914 546.617 121.92C544.952 121.929 543.798 122.102 542.252 122.138L542.094 122.118C539.349 122.377 536.208 122.518 532.763 122.539C530.751 122.618 528.55 122.615 526.415 122.673C525.905 122.789 524.703 122.646 524.064 122.752C523.425 122.858 522.381 122.788 521.558 122.806C520.734 122.823 519.929 122.867 519.049 122.865C518.284 122.866 517.639 122.913 517.171 123.003C516.103 123.151 514.802 123.239 513.325 123.261C511.37 123.3 509.522 123.387 507.534 123.368C507.563 123.476 507.441 123.568 507.181 123.635C506.921 123.701 506.533 123.74 506.056 123.746C503.931 123.788 502.003 123.895 499.849 123.927L499.273 123.927L492.831 123.99C491.096 124.002 489.424 124.021 487.654 124.035C486.991 123.953 486.975 124.094 486.516 124.067C486.388 123.998 486.237 123.967 486.011 124.005L485.961 124.088L478.61 124.199C475.732 124.28 472.704 124.304 469.553 124.272C468.805 124.28 468.108 124.307 467.471 124.354C466.88 124.371 466.265 124.379 465.628 124.377C464.766 124.356 463.924 124.345 463.105 124.345C460.951 124.377 458.691 124.36 456.332 124.336C453.974 124.313 452.187 124.354 450.088 124.351C448.667 124.348 447.252 124.334 445.78 124.301C445.078 124.286 444.212 124.203 443.485 124.172C442.757 124.142 442.52 124.142 442.424 124.19C442.107 124.324 441.311 124.237 440.675 124.224C439.434 124.202 439.258 124.156 438.921 123.81L440.443 123.7C440.817 123.665 441.286 123.658 441.806 123.682C442.326 123.706 442.88 123.758 443.413 123.835C443.623 123.868 443.843 123.894 444.059 123.911C444.276 123.929 444.485 123.938 444.674 123.937C446.21 123.919 447.725 123.879 449.201 123.847L449.417 123.826L449.43 123.517C449.235 123.487 449.033 123.462 448.831 123.443L441.426 123.242C439.727 123.193 437.963 123.082 436.296 123.037C434.628 122.992 433.729 122.964 432.436 122.917C431.89 122.891 431.333 122.856 430.769 122.812C430.802 122.783 430.821 122.751 430.826 122.718C430.855 122.668 430.895 122.601 430.655 122.547C430.394 122.472 430.045 122.407 429.678 122.367C429.333 122.34 428.999 122.325 428.688 122.322C427.186 122.296 425.471 122.133 423.908 121.867L423.363 122.044C421.016 121.945 418.634 121.847 416.182 121.752C415.691 121.726 415.176 121.677 414.675 121.607C414.139 121.541 413.645 121.402 413.08 121.326C412.522 121.272 411.967 121.229 411.427 121.199C411.573 121.153 411.766 121.117 411.999 121.091C412.229 121.082 412.396 121.053 412.477 121.009C412.558 120.966 412.548 120.909 412.448 120.848C412.274 120.743 412.197 120.644 412.577 120.631C412.928 120.607 413.18 120.555 413.302 120.481C413.423 120.407 413.41 120.315 413.264 120.214C413.2 120.156 413.155 120.098 413.129 120.042L412.971 120.023C412.451 119.815 411.411 119.74 410.664 119.57C410.312 119.521 409.947 119.492 409.628 119.489C408.802 119.453 407.998 119.437 407.145 119.391C406.737 119.37 406.31 119.331 405.89 119.277C405.29 119.203 405.227 119.195 404.879 118.925C405.42 118.93 405.849 118.889 406.093 118.811C406.337 118.732 406.382 118.62 406.219 118.494C405.773 118.218 405.301 117.926 403.283 117.73C403.941 117.72 404.575 117.701 405.181 117.672C405.357 117.666 405.489 117.646 405.559 117.614C405.629 117.583 405.634 117.541 405.573 117.495C405.511 117.449 405.387 117.401 405.216 117.357C405.046 117.314 404.837 117.276 404.618 117.25C403.552 117.094 402.441 116.99 401.408 116.948C400.538 116.93 399.752 116.94 398.736 116.94L397.536 116.791C397.556 116.758 397.38 116.712 397.424 116.694C397.729 116.523 398.066 116.355 398.412 116.171C397.859 116.072 397.38 115.952 397.029 115.825C396.679 115.698 396.472 115.57 396.431 115.454C396.401 115.419 396.409 115.387 396.454 115.361C396.499 115.335 396.58 115.314 396.691 115.301C397.007 115.279 397.251 115.236 397.403 115.176C397.556 115.117 397.614 115.041 397.573 114.957L396.64 114.644C393.831 114.421 391.073 114.261 388.416 114.169L386.017 114.099C385.728 114.015 385.818 113.978 386.09 113.976C386.362 113.974 387.128 113.997 387.663 114.01C388.125 114.026 388.535 114.015 388.854 113.979C389.172 113.942 389.389 113.88 389.482 113.799L388.677 113.443C388.716 113.376 388.772 113.281 389.209 113.288C389.508 113.28 389.727 113.246 389.833 113.192C389.939 113.138 389.925 113.067 389.792 112.99C389.772 112.934 389.802 112.883 389.881 112.839C390.527 112.836 391.17 112.838 391.756 112.821C392.029 112.815 392.26 112.794 392.432 112.76C392.605 112.726 392.715 112.679 392.755 112.622C392.776 112.567 392.725 112.504 392.605 112.438C392.485 112.372 392.3 112.306 392.064 112.244C391.146 112.167 390.305 112.166 389.728 112.241C389.522 112.3 389.191 112.332 388.779 112.333C388.367 112.334 387.893 112.304 387.419 112.248C386.877 112.183 386.336 112.154 385.894 112.167C385.451 112.18 385.136 112.234 385.005 112.319C384.449 112.286 383.955 112.261 383.469 112.224C382.894 112.178 382.352 112.165 381.899 112.185C381.175 112.2 380.394 112.191 379.576 112.16C377.215 112.083 374.852 112.011 372.567 111.979C371.962 111.97 371.439 111.994 370.841 111.974C370.243 111.954 369.77 112.009 369.022 111.898C368.88 111.881 368.737 111.87 368.604 111.866C368.471 111.862 368.352 111.865 368.257 111.875C366.944 111.962 365.404 111.975 363.728 111.911C361.433 111.896 359.053 111.852 356.755 111.842C356.08 111.85 355.443 111.873 354.85 111.911C354.399 111.933 353.926 111.948 353.434 111.956C353.057 111.963 352.696 111.942 352.76 112.064C352.823 112.185 352.259 112.109 351.933 112.087C350.814 112.028 349.671 111.948 348.516 111.849C347.378 111.74 346.262 111.678 345.237 111.664C344.496 111.655 343.732 111.686 342.78 111.521C342.816 111.459 342.853 111.398 343.06 111.334C342.283 111.158 341.397 111.007 340.475 110.893C339.553 110.779 338.621 110.705 337.756 110.677L336.564 110.345C336.27 110.305 335.971 110.277 335.683 110.261C335.396 110.245 335.126 110.241 334.891 110.251C334.71 110.256 334.488 110.243 334.268 110.216C334.048 110.189 333.843 110.148 333.692 110.102C333.465 110.044 333.189 109.993 332.897 109.957C332.605 109.921 332.31 109.901 332.05 109.899C331.231 109.863 330.356 109.779 329.516 109.657C329.298 109.585 329.162 109.511 329.123 109.444C329.085 109.376 329.147 109.319 329.301 109.278C329.549 109.206 329.688 109.114 329.71 109.008C329.732 108.902 329.637 108.784 329.429 108.661C329.323 108.585 329.287 108.514 329.325 108.451C329.362 108.388 329.472 108.334 329.647 108.293C330.3 108.106 330.125 108 329.056 107.689C328.882 107.637 328.673 107.588 328.441 107.546C328.21 107.504 327.961 107.47 327.71 107.444C327.122 107.394 326.542 107.356 325.981 107.332C325.665 107.293 325.341 107.324 324.977 107.309C323.159 107.233 322.892 107.111 322.303 106.846L321.874 106.656C321.078 106.502 320.207 106.373 319.325 106.281C318.442 106.188 317.57 106.133 316.77 106.119C316.452 106.118 316.087 106.092 315.73 106.044C314.569 105.899 313.393 105.798 312.28 105.748C311.586 105.721 310.838 105.649 310.127 105.542C309.415 105.434 308.769 105.296 308.266 105.144C307.815 105.007 307.225 104.883 306.578 104.791C305.82 104.697 305.75 104.587 306.173 104.502C306.596 104.417 307.305 104.308 307.934 104.219C308.153 104.188 308.288 104.139 308.325 104.076C308.363 104.013 308.3 103.939 308.145 103.863C308.045 103.731 308.028 103.607 308.093 103.492C308.128 103.444 308.104 103.39 308.022 103.332C307.94 103.274 307.803 103.214 307.619 103.156C307.435 103.098 307.208 103.043 306.955 102.996C306.702 102.949 306.428 102.909 306.151 102.881C304.983 102.737 303.846 102.596 302.655 102.49C302.156 102.44 301.657 102.378 301.171 102.306C300.177 102.128 299.112 101.98 298.041 101.871C297.532 101.822 297.035 101.737 296.656 101.634C295.463 101.355 294.363 101.063 293.378 100.762C293.14 100.668 292.829 100.577 292.464 100.494C292.1 100.411 291.689 100.337 291.258 100.278C290.911 100.235 290.628 100.14 290.361 100.077C290.166 99.9316 290.145 99.7966 290.3 99.6852C290.455 99.5738 290.781 99.4897 291.246 99.4407C291.688 99.3819 292.101 99.3136 292.483 99.2415C292.943 99.1831 293.49 99.1481 294.103 99.1376C294.83 99.1063 295.367 99.0167 295.645 98.8806C293.656 98.6343 291.764 98.2806 290.021 98.3633L288.696 98.1395C288.749 98.0505 288.795 97.9726 288.838 97.9003C289.153 97.7686 289.252 97.6026 289.125 97.4162C289.021 97.3261 289.03 97.2441 289.152 97.1785C289.274 97.1129 289.505 97.066 289.821 97.0426C291.691 96.8025 293.855 96.6404 295.609 96.368C296.159 96.3169 296.803 96.2936 297.513 96.2993C298.201 96.2829 298.172 96.1599 297.381 96.0082C296.937 95.9289 296.484 95.8529 296.025 95.7805C293.999 95.7684 293.173 96.132 290.861 96.0308L289.789 95.5517C289.5 95.5443 289.218 95.5414 288.947 95.543L285.071 95.7376C284.748 95.7474 284.496 95.7807 284.345 95.8337C284.194 95.8868 284.149 95.9575 284.215 96.0378C284.241 96.136 284.188 96.2261 284.057 96.3048C283.972 96.3599 284.026 96.4332 284.207 96.5086C284.615 96.6785 284.092 96.7033 283.761 96.746C283.677 96.7502 283.58 96.7497 283.475 96.7447C283.37 96.7396 283.261 96.7301 283.152 96.7167C283.043 96.7032 282.938 96.6861 282.842 96.6663C282.746 96.6465 282.662 96.6244 282.593 96.6013C282.011 96.4397 281.502 96.2691 280.93 96.0908C281.337 95.9201 280.859 95.64 281.492 95.4856C281.563 95.4547 281.592 95.4171 281.576 95.3751C281.56 95.3331 281.5 95.2875 281.4 95.2412C281.142 95.1217 281.019 95.0051 281.044 94.9033C281.068 94.8015 281.24 94.7181 281.54 94.6614L281.577 94.6002C280.784 94.3945 280.994 94.2115 280.682 93.9938L279.919 93.8515C278.021 93.5089 278.018 93.5145 276.384 93.5271C276.055 93.3967 276.473 93.3769 276.787 93.362L279.415 93.2157C281.133 93.118 282.902 93.0504 284.821 93.0134C286.741 92.9765 288.881 92.8533 290.865 92.7647C290.966 92.7578 291.042 92.7442 291.089 92.7251C291.136 92.7059 291.151 92.6817 291.134 92.6546C291.055 92.6252 290.952 92.5969 290.832 92.5717C290.712 92.5465 290.578 92.5251 290.441 92.509C289.809 92.4308 289.161 92.3804 288.488 92.315L287.234 92.2015L286.848 92.0522C286.597 91.9613 286.425 91.8505 286.091 91.7852C285.816 91.7366 285.517 91.6996 285.226 91.6782C284.935 91.6569 284.662 91.6518 284.435 91.6637C283.808 91.6935 283.24 91.7366 282.64 91.7759C282.041 91.8151 281.711 91.8578 281.191 91.877C280.135 91.8858 279.115 91.9089 278.134 91.9463C277.308 92.0348 276.544 92.1397 275.847 92.2602C275.412 92.3079 275.005 92.365 274.263 92.3029C273.911 92.2466 273.607 92.1726 273.405 92.0941C273.204 92.0155 273.117 91.9375 273.162 91.8739C273.201 91.824 273.314 91.7846 273.489 91.7592C273.665 91.7339 273.896 91.7235 274.162 91.7291C274.908 91.7199 275.597 91.6891 276.216 91.6371C277.078 91.543 278.128 91.5024 279.303 91.5178C279.702 91.5313 279.969 91.4808 280.317 91.4643C280.666 91.4477 280.962 91.4067 281.35 91.4369C282.558 91.5148 283.137 91.3954 283.861 91.3179C284.106 91.2835 284.258 91.2279 284.299 91.1572C284.341 91.0865 284.272 91.0035 284.098 90.9173C283.764 90.7456 283.356 90.5729 282.879 90.402C282.633 90.3179 282.319 90.2381 281.96 90.1689C281.601 90.0996 281.208 90.0426 280.811 90.0025C280.573 89.8974 280.447 89.794 280.442 89.7017C280.438 89.6093 280.556 89.5311 280.786 89.4739C281.371 89.3433 281.89 89.2106 283.203 89.2835C283.82 89.3114 284.4 89.3167 284.921 89.2993C286.078 89.2755 287.411 89.3277 288.797 89.4508C289.155 89.4824 289.507 89.5039 289.843 89.5147C292.238 89.5904 294.52 89.6282 296.809 89.6548C298.021 89.6676 299.243 89.6638 300.509 89.7011C303.477 89.782 306.179 89.7404 309.043 89.7668C310.544 89.7803 311.887 89.7258 313.002 89.6061C313.219 89.5659 313.406 89.5191 313.559 89.4661C312.82 89.327 312.009 89.2169 311.202 89.1462C310.395 89.0756 309.621 89.0469 308.952 89.0627C308.585 89.1017 308.11 89.1088 307.581 89.0833C307.051 89.0578 306.488 89.0007 305.954 88.9183L307.507 88.8717C308.536 88.85 309.591 88.8432 310.592 88.8119C312.183 88.7581 313.657 88.672 315.304 88.6371C316.634 88.6051 317.824 88.5231 318.837 88.3939C319.569 88.2996 320.405 88.2328 321.327 88.1947C321.983 88.1744 321.983 88.1744 322.403 87.9815C322.07 87.8567 321.64 87.8392 321.235 87.8368C318.805 87.7583 316.493 87.7445 314.346 87.7958C313.262 87.8004 312.301 87.8533 311.508 87.952C311.314 87.9937 310.818 87.9739 310.419 87.9604C309.169 87.9398 307.975 87.9458 306.85 87.9783C305.295 88.0324 303.563 88.0195 301.722 87.9403C301.373 87.8433 301.775 87.8513 301.794 87.8179C303.221 87.7556 304.619 87.6839 306.073 87.6312C306.471 87.6124 306.896 87.6031 307.343 87.6034C309.015 87.6361 310.407 87.5455 311.326 87.3442C311.373 87.2663 311.977 87.2755 312.244 87.225C312.376 87.1813 312.463 87.1298 312.504 87.0721C312.115 86.9283 311.675 86.9275 311.336 86.9274C310.353 86.9434 309.407 86.9739 308.503 87.0185C307.663 87.061 306.733 87.0723 305.738 87.0523C305.004 87.033 304.377 87.0628 303.636 87.0546C303.234 87.0375 302.818 87.0101 302.397 86.9728C302.866 86.8726 303.504 86.811 304.266 86.7923C304.844 86.7324 305.566 86.7144 305.658 86.5586C305.385 86.4472 305.082 86.4454 304.837 86.4569C304.329 86.4565 303.839 86.4635 303.368 86.478C302.37 86.5096 301.289 86.5101 300.148 86.4793C299.547 86.4678 298.977 86.4712 298.447 86.4896C297.247 86.5141 296.096 86.5687 294.997 86.5938C292.745 86.6195 290.691 86.7115 288.528 86.76C288.046 86.772 287.614 86.8141 286.98 86.7415C286.345 86.6688 286.317 86.6594 286.242 86.6142C286.064 86.539 286.01 86.466 286.091 86.4105C286.217 86.3586 286.463 86.3297 286.783 86.329C288.718 86.2465 290.552 86.1306 292.276 85.982C293.034 85.9523 293.699 85.8916 294.246 85.8021C294.68 85.7404 295.195 85.6996 295.775 85.6809C296.618 85.6363 297.497 85.6037 298.409 85.5831C298.833 85.572 299.193 85.539 299.469 85.4859C299.745 85.4329 299.93 85.361 300.015 85.2744L298.898 84.9867C298.722 84.9733 298.548 84.9617 298.376 84.952L289.103 85.1592L288.185 85.1649C287.179 85.1477 286.933 85.1053 285.978 84.7721C288.157 84.6937 289.87 84.4652 290.946 84.1093C290.687 84.0711 290.422 84.0382 290.156 84.0116C288.415 83.9274 286.769 83.9051 285.282 83.9454C284.398 83.9494 283.49 83.9384 282.578 83.933C282.845 83.7689 283.866 83.8178 284.532 83.7808C286.123 83.723 287.53 83.6034 288.707 83.426C289.113 83.3569 289.621 83.3126 290.208 83.2954C290.795 83.2894 291.286 83.2476 291.637 83.1734C291.988 83.0993 292.189 82.9951 292.222 82.87C292.278 82.7567 292.397 82.6515 292.578 82.5558C292.257 82.42 291.748 82.29 291.146 82.1901C290.544 82.0902 289.89 82.0274 289.307 82.0133C288.064 81.9574 286.774 81.8659 285.47 81.7411C284.821 81.6782 284.184 81.642 283.601 81.6351C283.087 81.6297 282.503 81.5843 281.938 81.5056C281.373 81.427 280.857 81.3195 280.471 81.1996C279.949 81.0513 279.461 80.9014 278.974 80.7514C278.487 80.6015 277.921 80.4121 277.353 80.2281C276.851 80.1994 276.363 80.1809 275.894 80.1729C275.53 80.1797 275.104 80.1596 274.668 80.1152C274.232 80.0707 273.804 80.0036 273.434 79.9219C273.651 79.8413 273.896 79.7702 274.155 79.6768C273.8 79.5535 273.543 79.4278 273.398 79.3073C273.254 79.1868 273.226 79.074 273.317 78.9758C273.369 78.8868 272.983 78.7375 272.85 78.6194C272.678 78.5177 272.646 78.4227 272.758 78.347C272.869 78.2713 273.119 78.2183 273.474 78.1951C273.915 78.1523 274.274 78.0877 274.536 78.0042C274.623 77.9825 274.667 77.9528 274.665 77.9177C274.662 77.8827 274.613 77.8436 274.522 77.8038C274.431 77.764 274.301 77.7249 274.144 77.69C273.986 77.6551 273.807 77.6256 273.621 77.6042C273.053 77.5434 272.489 77.504 271.962 77.4882C271.053 77.4592 270.182 77.441 269.351 77.4336C268.431 77.4224 267.408 77.3534 266.386 77.2335C265.47 77.1202 264.649 77.0185 264.202 76.8018C263.754 76.5851 263.038 76.592 262.488 76.4343C262.797 76.2921 263.347 76.1933 264.081 76.1479C264.561 76.1316 264.963 76.0891 265.259 76.0229C265.555 75.9567 265.739 75.8684 265.8 75.7635L264.129 75.3237C262.794 75.1166 262.056 75.276 260.614 75.193L262.1 75.0306C262.13 75.0145 262.141 74.9957 262.133 74.975C261.989 74.6466 261.759 74.5763 260.24 74.3942L259.388 74.2886L258.039 74.1634C257.823 74.0961 257.674 74.0259 257.606 73.9598C257.538 73.8938 257.554 73.8342 257.652 73.787C257.85 73.7076 257.91 73.6062 257.827 73.4921C257.696 73.4165 257.685 73.3468 257.796 73.2951C257.907 73.2435 258.133 73.213 258.435 73.2091C258.676 73.2031 258.694 73.1158 258.825 73.0663C258.955 72.9981 259.178 72.9458 259.478 72.9129C259.778 72.88 260.149 72.8673 260.564 72.8756C261.79 72.8825 262.941 72.8569 263.998 72.7993L263.809 72.7759C264.91 72.8264 265.94 72.8325 266.848 72.7939C267.758 72.7454 268.925 72.7765 269.892 72.7469C270.679 72.7537 271.278 72.6865 271.562 72.5596C271.837 72.4384 272.837 72.4667 273.602 72.4899C274.056 72.5048 274.494 72.5112 274.913 72.5088C275.474 72.4814 276.177 72.5073 276.903 72.5821C277.12 72.6051 277.335 72.6173 277.526 72.6174C279.371 72.6489 281.213 72.6859 283.033 72.7023C283.453 72.6929 283.946 72.7145 284.453 72.7647C284.666 72.7865 284.874 72.7956 285.048 72.7906C287.924 72.7407 291.169 72.868 293.989 72.7992C294.33 72.7829 294.709 72.7795 295.113 72.7891C296.021 72.8296 296.81 72.8035 297.36 72.715C297.656 72.6679 298.036 72.642 298.476 72.6389C298.915 72.6357 299.404 72.6554 299.912 72.6967C300.757 72.7514 301.538 72.7573 302.172 72.7139C303.409 72.6737 304.71 72.6572 306.065 72.6645C306.48 72.6715 306.845 72.6559 307.131 72.6189C307.417 72.5819 307.618 72.5244 307.716 72.451C307.383 72.3262 307.02 72.311 306.674 72.322C305.336 72.2935 304 72.2595 302.687 72.2461C301.511 72.2078 300.383 72.1961 299.319 72.2112C298.79 72.2281 298.131 72.1894 297.485 72.1035C296.693 71.9946 295.877 71.9405 295.202 71.9522C294.702 71.9551 294.174 71.9457 293.626 71.9242C293.275 71.8982 292.916 71.8537 292.584 71.7952C292.453 71.7697 292.31 71.7483 292.164 71.7324C292.019 71.7164 291.874 71.7062 291.739 71.7024C291.604 71.6986 291.482 71.7014 291.381 71.7104C291.28 71.7195 291.201 71.7346 291.151 71.755C290.644 71.925 289.509 71.8383 288.537 71.8194C287.081 71.5316 285.998 71.702 284.637 71.5394C284.529 71.5286 284.423 71.5221 284.325 71.5202C284.227 71.5184 284.14 71.5212 284.067 71.5286C281.434 71.6264 278.365 71.5449 275.6 71.5787C275.295 71.5836 274.941 71.5667 274.578 71.5298C272.208 71.2856 269.929 71.2163 268.187 71.3354C267.975 71.3461 267.734 71.3466 267.474 71.3367C266.283 71.2397 265.144 71.201 264.153 71.2239C262.598 71.2165 261.104 71.2225 259.524 71.2001C258.435 71.1682 257.48 71.2023 256.754 71.299C256.731 71.3379 256.248 71.296 255.878 71.2919C255.665 71.1939 255.48 71.1053 255.26 71.0184C255.064 70.9108 254.77 70.802 254.398 70.6993C254.026 70.5966 253.586 70.5024 253.106 70.423C252.285 70.3214 252.203 70.1739 252.777 70.1196C254.257 69.94 256.119 69.8665 258.225 69.9045C259.985 69.9075 261.777 69.9145 263.562 69.9326C264.604 69.9481 265.702 69.9825 266.715 69.9885C267.056 70.0018 267.408 70.0213 267.764 70.0469C268.202 70.084 268.627 70.1042 269.017 70.1065C270.267 70.0752 271.663 70.1024 273.137 70.1868C273.677 70.2052 274.196 70.2114 274.685 70.2053C275.843 70.1824 277.098 70.1993 278.417 70.2555C279.237 70.2871 280.032 70.3037 280.794 70.305C281.063 70.3084 281.282 70.2818 281.541 70.302C283.822 70.5128 285.437 70.3605 287.49 70.4416C288.488 70.4642 289.441 70.4643 290.337 70.4418C292.084 70.4429 293.88 70.466 295.718 70.5111C298.148 70.5851 300.399 70.5594 302.719 70.59C303.177 70.5964 303.62 70.5953 304.043 70.5867C306.102 70.5298 308.338 70.5419 310.698 70.6226C311.233 70.6342 311.714 70.62 312.111 70.5807C312.507 70.5414 312.811 70.478 313.002 70.3943C313.082 70.3369 313.03 70.2624 312.855 70.185C312.563 70.0863 312.235 69.9895 311.874 69.8963L298.741 69.5836C298.189 69.5673 297.652 69.5585 297.13 69.5573C295.596 69.5546 294.015 69.5303 292.395 69.4845C290.794 69.4414 289.264 69.4491 287.713 69.4361C287.256 69.4318 286.787 69.4215 286.308 69.4054C283.07 69.2779 279.911 69.2 276.856 69.1723C275.571 69.1684 274.182 69.1099 272.872 69.0909C271.562 69.072 269.77 69.065 268.215 69.0576L263.403 69.0588C262.456 69.055 261.534 69.0662 260.616 69.0719C259.501 68.6652 259.117 68.5698 257.63 68.3916C257.122 68.3259 256.604 68.2867 256.139 68.2785C254.662 68.3107 252.81 68.1768 251.41 68.1946C250.565 68.1858 249.849 68.231 249.333 68.3255C248.886 68.3997 248.374 68.4583 247.806 68.5006C246.25 68.1527 246.113 67.9267 247.283 67.8387C247.601 67.8183 248.037 67.8246 248.266 67.7813C248.398 67.7549 248.577 67.7398 248.791 67.7372C249.004 67.7346 249.245 67.7446 249.495 67.7663C250.285 67.8232 251.025 67.8366 251.641 67.8051C252.221 67.7634 252.932 67.7651 253.705 67.8099C254.273 67.8803 254.773 67.781 255.264 67.7522C255.756 67.7235 256.159 67.6719 256.927 67.7491C257.067 67.7645 257.207 67.7737 257.335 67.7761C257.462 67.7784 257.575 67.7739 257.664 67.7628C258.489 67.7131 259.472 67.7183 260.536 67.778C262.166 67.8368 263.696 67.839 265.073 67.7846C265.896 67.7369 266.599 67.6525 267.152 67.5345C267.303 67.4951 267.527 67.4714 267.803 67.4658C269.188 67.4904 270.691 67.5831 272.217 67.7378C272.791 67.7997 273.365 67.8488 273.926 67.8838C275.079 67.9616 276.194 68.0052 277.238 68.0133C278.755 68.0146 280.335 68.0445 281.963 68.1029C282.968 68.1353 283.936 68.1473 284.856 68.1387C285.802 68.1346 286.812 68.1594 287.863 68.2124C288.908 68.2556 289.828 68.2307 290.514 68.1407C290.74 68.0922 290.922 68.0346 291.057 67.969C289.527 67.7555 287.944 67.647 286.628 67.6654C286.128 67.6512 285.713 67.6655 285.186 67.5823L285.17 67.6101C285.065 67.6282 284.907 67.6325 284.725 67.6221C284.544 67.6118 284.352 67.5875 284.186 67.554C284.249 67.4483 284.308 67.3482 284.351 67.2759C285.354 67.2886 286.328 67.2876 287.267 67.2728C288.059 67.2514 289.135 67.4383 289.82 67.368C291.157 67.456 292.009 67.3345 293.208 67.3695C294.407 67.4046 295.728 67.5204 296.927 67.5555C297.973 67.5747 298.99 67.5789 299.97 67.568C300.308 67.5527 300.698 67.5563 301.115 67.5785C301.703 67.6204 302.249 67.6274 302.691 67.5988C303.134 67.5701 303.455 67.507 303.617 67.4166C303.464 67.3319 303.258 67.2228 303.02 67.1097C303.458 67.0168 304.123 66.9777 304.916 66.9982L306.037 66.9937C306.334 66.9961 306.561 66.971 306.671 66.9235C306.781 66.876 306.766 66.8098 306.629 66.7385C304.503 66.3797 304.425 66.3401 302.865 66.5709L300.793 66.4637L300.828 66.462ZM328.845 67.4477L328.687 67.4281L328.845 67.4477ZM586.978 105.623L586.942 105.684L586.981 105.617L587.328 105.66L587.351 105.621L586.978 105.623ZM536.557 78.799C536.067 78.7322 535.571 78.6708 535.074 78.6152C534.943 78.6066 534.822 78.6046 534.718 78.6095C534.615 78.6144 534.534 78.626 534.481 78.6433C534.441 78.7101 534.719 78.7564 534.971 78.7877C535.29 78.8298 535.615 78.8565 535.914 78.8652C536.213 78.8738 536.474 78.8641 536.671 78.8369L536.956 78.8125L536.557 78.799ZM283.738 95.0709C284.061 95.0821 284.367 95.084 284.649 95.0763C285.901 95.0224 287.1 94.9439 288.383 94.8938C290.003 94.7668 291.864 94.715 293.896 94.7405C294.69 94.753 295.361 94.7118 295.83 94.6218C296.111 94.5735 296.474 94.5452 296.896 94.5388L302.27 94.3921C302.602 94.3617 302.889 94.319 303.124 94.2651C302.651 94.2064 302.335 94.1673 302.146 94.1439C301.753 94.1373 301.415 94.1551 301.166 94.1957C300.899 94.2645 300.447 94.2917 299.901 94.2719C299.349 94.2556 298.811 94.2468 298.29 94.2456C297.305 94.249 296.314 94.2636 295.326 94.2726C294.941 94.4639 293.807 94.3771 292.835 94.3583L292.084 94.3668C289.631 94.466 287.287 94.6024 285.065 94.7754C284.635 94.8047 284.265 94.8514 283.966 94.9141C283.853 94.9629 283.817 95.0239 283.861 95.0921L283.703 95.0725L283.738 95.0709ZM393.301 113.359C393.897 113.372 394.516 113.398 395.152 113.438C395.641 113.479 396.119 113.504 396.565 113.512C399.068 113.555 401.676 113.654 404.354 113.808C404.704 113.831 405.04 113.842 405.35 113.842L407.542 113.802C408.233 113.781 408.246 113.758 407.743 113.463C407.326 113.406 406.904 113.354 406.48 113.307C406.228 113.275 405.818 113.225 405.721 113.272C405.136 113.403 404.068 113.318 403.169 113.291C400.568 113.219 397.886 113.114 395.26 113.028C394.704 113.007 394.167 112.996 393.652 112.996C393.332 112.991 393.041 113 392.79 113.02C392.717 113.023 392.655 113.029 392.61 113.039C392.565 113.048 392.536 113.062 392.527 113.077C392.517 113.093 392.527 113.111 392.556 113.13C392.584 113.149 392.63 113.169 392.691 113.187C392.906 113.253 393.154 113.316 393.428 113.374L393.301 113.359ZM412.355 70.5168L414.917 70.4818C415.224 70.478 415.485 70.4386 415.814 70.4555C417.568 70.5089 419.193 70.494 420.618 70.4115C421.103 70.3778 421.671 70.3711 422.29 70.3917C424.186 70.4526 425.974 70.4551 427.606 70.3991C428.661 70.3879 429.648 70.3501 430.553 70.2864C430.623 70.2716 430.666 70.2515 430.681 70.2275C430.695 70.2035 430.68 70.1762 430.636 70.1473C430.624 70.1291 430.593 70.1095 430.545 70.0898C430.496 70.0702 430.432 70.051 430.355 70.0336C430.278 70.0161 430.192 70.0009 430.101 69.9888C430.01 69.9768 429.918 69.9683 429.83 69.9638C428.686 69.8776 427.601 69.8475 426.662 69.8761C425.792 69.9103 424.855 69.9204 423.866 69.906C422.919 69.9022 422.277 70.0138 421.107 69.9287C420.613 69.9006 420.176 69.9099 419.872 69.9548C419.259 70.0293 418.404 70.0334 417.459 69.9665C416.893 69.9326 416.353 69.9181 415.858 69.9235C414.657 69.948 413.51 69.997 412.398 70.0443C412.047 70.0553 411.671 70.0568 411.277 70.0488L405.706 69.9561C404.368 69.9277 403.032 69.8937 401.719 69.8803C400.644 69.8511 399.644 69.8603 398.754 69.9073C397.805 69.9567 396.771 69.9767 395.669 69.9671C393.959 69.9941 392.258 70.0045 390.396 70.0008C389.209 70.0031 387.993 69.9958 386.753 69.9736C386.125 69.9449 385.592 69.9682 385.257 70.0391C385.053 70.0974 384.573 70.0499 384.174 70.0364C382.048 69.9059 380.054 69.8749 378.331 69.9458C378.111 69.9573 377.87 69.9615 377.612 69.9582C375.953 69.9558 374.234 69.94 372.642 69.9398C372.222 69.9453 371.828 69.9604 371.463 69.9849C371.502 70.0249 371.613 70.0682 371.774 70.1059C371.935 70.1436 372.132 70.1727 372.326 70.1873C373.832 70.299 375.286 70.358 376.628 70.3618C378.86 70.3476 381.199 70.3795 383.62 70.4574C385.498 70.5359 387.21 70.5193 388.63 70.409C389.739 70.3267 391.183 70.3577 392.712 70.4966C393.366 70.563 394.002 70.5895 394.531 70.5726C395.04 70.5504 395.624 70.5558 396.25 70.5884C397.568 70.6504 398.836 70.6792 400.028 70.6742C401.194 70.6513 402.281 70.5889 403.479 70.57C404.676 70.5511 406.499 70.5619 407.976 70.5298C409.452 70.4976 410.912 70.4933 412.355 70.5168ZM306.182 67.2625C306.318 67.4345 306.797 67.5416 307.312 67.5875C309.087 67.7912 310.843 67.8778 312.283 67.833C313.061 67.7704 314.098 67.7945 315.191 67.9005C316.464 68.0108 317.653 68.0291 318.549 67.9521C318.769 67.9387 318.937 67.9103 319.039 67.8695C319.059 67.8361 319.095 67.7749 319.102 67.7637C319.007 67.7355 318.892 67.7094 318.764 67.6873C318.636 67.6653 318.499 67.6479 318.364 67.6365L312.482 67.4396L311.457 67.3963C309.585 67.2828 307.802 67.2375 306.182 67.2625ZM317.751 69.9853C318.669 70.2662 318.672 70.2606 319.142 70.3248C321.411 70.5915 323.678 70.7355 325.674 70.7396C326.118 70.7388 326.494 70.7117 326.772 70.6606C326.914 70.6536 327.005 70.6316 327.024 70.5993C327.044 70.567 326.989 70.527 326.874 70.4881L326.144 70.2902C324.818 70.2045 323.512 70.1364 322.232 70.0864C320.742 70.0273 319.422 70.025 317.877 70.0009L317.751 69.9853ZM393.191 112.115C394.047 112.501 394.05 112.496 395.482 112.595C396.48 112.666 397.448 112.708 398.357 112.719C399.468 112.731 400.607 112.752 401.715 112.77C401.986 112.783 402.215 112.772 402.359 112.742C402.502 112.711 402.55 112.662 402.492 112.604C402.346 112.541 402.119 112.48 401.846 112.431C401.574 112.382 401.272 112.348 400.991 112.334L400.386 112.325C399.652 112.306 398.89 112.277 398.181 112.273C397.721 112.289 397.188 112.276 396.623 112.237C396.059 112.197 395.479 112.13 394.928 112.043L393.191 112.115ZM322.318 67.768C322.547 67.835 322.805 67.8991 323.086 67.9587C324.176 68.1239 325.329 68.2177 326.319 68.2217C326.788 68.232 327.216 68.1954 327.693 68.2485C328.548 68.3195 329.377 68.3572 330.134 68.3598C330.134 68.3598 330.347 68.3443 330.417 68.341L330.562 68.0962C330.203 68.0395 329.829 67.9932 329.457 67.9594C328.208 67.8943 326.98 67.8497 325.756 67.7996C324.532 67.7496 324.105 67.7265 323.305 67.705C322.947 67.7169 322.617 67.738 322.318 67.768ZM295.268 98.201L296.903 98.702C297.432 98.7456 297.926 98.7534 298.31 98.7245C298.694 98.6955 298.947 98.6313 299.031 98.5416C299.166 98.4996 299.179 98.4374 299.068 98.3681C298.958 98.2987 298.732 98.2276 298.438 98.1696C298.155 98.1008 297.832 98.0392 297.489 97.9885C297.146 97.9378 296.79 97.8991 296.444 97.8748L295.268 98.201ZM308.878 95.7063C307.809 95.6213 306.786 95.5866 305.889 95.6047C305.323 95.6544 304.556 95.6386 303.746 95.5603C302.273 95.4045 300.852 95.3613 299.785 95.44C299.785 95.44 299.745 95.5067 299.564 95.5261C299.383 95.5455 300.101 95.5926 300.259 95.6122C301.416 95.66 302.581 95.6967 303.587 95.7139C304.212 95.7131 304.873 95.7289 305.559 95.761C306.502 95.8104 307.397 95.8264 308.208 95.8084C308.208 95.8084 308.522 95.7935 308.875 95.7118L308.878 95.7063ZM423.059 69.609C422.548 69.5147 421.995 69.438 421.439 69.3847C420.884 69.3314 420.341 69.303 419.853 69.3015C419.478 69.2965 419.175 69.3215 418.992 69.3723C418.808 69.4231 418.754 69.4969 418.839 69.582C419.218 69.629 419.723 69.6915 420.007 69.7267C420.992 69.7233 421.832 69.678 423.059 69.609ZM518.653 77.5609C518.243 77.4849 517.792 77.4269 517.351 77.3933C516.909 77.3597 516.495 77.352 516.156 77.3711C515.982 77.3794 516.1 77.4657 516.071 77.5157C516.051 77.5271 516.052 77.5412 516.071 77.5566C516.091 77.572 516.13 77.5882 516.183 77.6033C516.237 77.6185 516.303 77.6321 516.375 77.6428C516.447 77.6535 516.522 77.6608 516.593 77.664C517.037 77.6967 517.457 77.7065 517.814 77.6924C518.171 77.6783 518.455 77.6407 518.64 77.5831L518.653 77.5609ZM525.058 78.6468C524.995 78.602 524.86 78.5553 524.678 78.5152C524.497 78.4752 524.28 78.4445 524.069 78.4287C523.696 78.4266 523.357 78.4391 523.065 78.4656C522.747 78.486 522.976 78.6158 523.404 78.6928C523.586 78.7237 523.78 78.7478 523.971 78.7632C524.162 78.7786 524.345 78.7848 524.505 78.7814C524.665 78.7781 524.797 78.7651 524.892 78.7437C524.987 78.7222 525.042 78.6929 525.052 78.6579L525.058 78.6468ZM338.946 68.2448C337.99 68.0846 337.255 68.1249 336.445 68.0605C335.636 67.9962 335.437 67.9894 335.545 68.0924C335.654 68.1954 336.208 68.1745 336.556 68.2175C337.025 68.2746 337.497 68.3074 337.919 68.3122C338.341 68.317 338.697 68.2937 338.946 68.2448ZM538.071 95.3435C537.565 95.3076 537.069 95.2822 536.591 95.2677C536.528 95.2826 536.488 95.3021 536.475 95.325C536.461 95.348 536.474 95.3739 536.512 95.4013C536.512 95.4013 536.836 95.4832 537.025 95.5067C537.723 95.5871 537.757 95.4719 538.071 95.3435ZM609.608 110.265C609.951 110.373 610.111 110.447 610.385 110.499C610.511 110.517 610.641 110.53 610.766 110.537C610.891 110.544 611.007 110.545 611.106 110.54C611.226 110.509 611.255 110.461 611.185 110.407C611.185 110.407 610.836 110.31 610.703 110.305C610.324 110.282 609.956 110.269 609.608 110.265ZM322.68 67.3291C321.954 67.2392 321.259 67.1531 320.757 67.2581C321.91 67.371 321.91 67.371 322.68 67.3291ZM334.441 68.3557C333.707 68.1634 333.277 68.1459 332.925 68.168C332.85 68.1736 332.801 68.186 332.784 68.2033C332.767 68.2207 332.784 68.2421 332.833 68.2642C332.881 68.2864 332.957 68.3081 333.051 68.3261C333.145 68.3441 333.25 68.3575 333.351 68.3641C333.734 68.3696 334.098 68.3668 334.441 68.3557ZM372.177 68.437C372.193 68.4092 372.213 68.3758 372.024 68.3524C371.974 68.3404 371.916 68.3302 371.855 68.3227C371.794 68.3151 371.732 68.3105 371.677 68.3094C371.677 68.3094 371.657 68.3427 371.644 68.365L372.177 68.437ZM398.382 114.621L397.96 114.646L398.15 114.67L398.65 114.684L398.382 114.621ZM546.868 78.2127C546.71 78.1932 546.552 78.1736 546.529 78.2126C546.496 78.2186 546.475 78.2273 546.469 78.2379C546.462 78.2486 546.471 78.2609 546.493 78.2738C546.493 78.2738 546.714 78.3011 546.808 78.3129L546.868 78.2127ZM522.284 78.5242C522.18 78.522 522.087 78.5246 522.009 78.5319L521.989 78.5652L522.305 78.6044L522.284 78.5242ZM308.044 86.4779C307.922 86.4576 307.793 86.4416 307.666 86.431L307.508 86.4114C307.508 86.4114 307.677 86.4683 307.772 86.48C307.867 86.4917 307.943 86.4773 308.044 86.4779Z" fill="#DF6951"/>
</g>
<path d="M1.848 31.008V13.2H53.508V31.008H48.384L44.94 19.668H34.524V65.448L42.252 67.296V72H13.104V67.296L20.832 65.448V19.668H10.332L6.888 31.008H1.848ZM53.9569 72V67.548L61.0969 65.868V37.644H53.9569V33.192L67.3969 30H74.0329V35.04C78.2329 30.84 83.2169 28.74 88.9849 28.74C89.3209 29.804 89.4889 30.98 89.4889 32.268C89.4889 34.844 89.2089 37.252 88.6489 39.492L78.0649 37.728C76.7209 38.344 75.3769 39.24 74.0329 40.416V65.868L82.8529 67.548V72H53.9569ZM89.8078 61.584C89.8078 56.712 91.7958 53.016 95.7718 50.496C99.8038 47.92 106.3 46.632 115.26 46.632V44.112C115.26 42.432 115.232 41.228 115.176 40.5C115.176 39.716 115.064 38.792 114.84 37.728C114.616 36.664 114.28 35.908 113.832 35.46C113.44 35.012 112.824 34.62 111.984 34.284C111.144 33.892 110.108 33.696 108.876 33.696L98.2078 42.936C94.3998 40.752 92.4958 37.364 92.4958 32.772L95.0158 31.68C96.0798 31.232 98.1518 30.644 101.232 29.916C104.312 29.132 107.308 28.74 110.22 28.74C122.26 28.74 128.28 33.556 128.28 43.188V65.7H134.832V69.312C134.552 69.592 134.16 69.956 133.656 70.404C133.152 70.852 132.06 71.44 130.38 72.168C128.7 72.896 126.964 73.26 125.172 73.26C120.916 73.26 117.752 71.832 115.68 68.976C111.928 71.832 107.84 73.26 103.416 73.26C99.5518 73.26 96.3038 72.28 93.6718 70.32C91.0958 68.36 89.8078 65.448 89.8078 61.584ZM103.332 60.828C103.332 62.452 103.864 63.74 104.928 64.692C106.048 65.644 107.392 66.12 108.96 66.12C111.48 66.12 113.58 65.196 115.26 63.348V51.84C112.124 51.84 109.352 52.68 106.944 54.36C104.536 55.984 103.332 58.14 103.332 60.828ZM130.268 34.452V30H155.972V34.452L150.26 35.796L158.744 55.872L167.06 35.88L161.516 34.452V30H179.744V34.452L172.688 36.3L157.736 72.588H151.856L136.316 36.216L130.268 34.452ZM177.762 50.496C177.762 43.888 179.61 38.624 183.306 34.704C187.058 30.728 192.126 28.74 198.51 28.74C205.006 28.74 209.906 30.952 213.21 35.376C216.57 39.8 218.25 45.26 218.25 51.756H190.698C191.09 55.9 192.574 59.484 195.15 62.508C197.726 65.476 201.03 66.96 205.062 66.96C208.086 66.96 211.334 66.316 214.806 65.028L216.57 69.816C211.362 72.112 206.266 73.26 201.282 73.26C194.058 73.26 188.318 71.16 184.062 66.96C179.862 62.704 177.762 57.216 177.762 50.496ZM190.698 46.548L204.894 45.624C204.894 44.28 204.81 43.048 204.642 41.928C204.474 40.752 203.998 39.352 203.214 37.728C201.814 35.376 200.162 34.2 198.258 34.2C196.018 34.2 194.17 35.348 192.714 37.644C191.874 39.044 191.314 40.584 191.034 42.264C190.754 43.944 190.642 45.372 190.698 46.548ZM218.495 72V67.548L225.635 65.868V12.444H218.495V7.992L231.935 4.8H238.571V65.868L245.711 67.548V72H218.495ZM245.67 83.34C248.974 79.924 251.578 76.284 253.482 72.42L246.678 68.136C246.678 65.84 247.434 63.936 248.946 62.424C250.514 60.912 252.334 60.156 254.406 60.156C256.926 60.156 258.858 60.884 260.202 62.34C261.546 63.74 262.218 65.756 262.218 68.388C262.218 71.636 260.846 75.052 258.102 78.636C255.414 82.22 252.586 84.964 249.618 86.868L245.67 83.34ZM280.724 50.496C280.724 43.888 282.572 38.624 286.268 34.704C290.02 30.728 295.088 28.74 301.472 28.74C307.968 28.74 312.868 30.952 316.172 35.376C319.532 39.8 321.212 45.26 321.212 51.756H293.66C294.052 55.9 295.536 59.484 298.112 62.508C300.688 65.476 303.992 66.96 308.024 66.96C311.048 66.96 314.296 66.316 317.768 65.028L319.532 69.816C314.324 72.112 309.228 73.26 304.244 73.26C297.02 73.26 291.28 71.16 287.024 66.96C282.824 62.704 280.724 57.216 280.724 50.496ZM293.66 46.548L307.856 45.624C307.856 44.28 307.772 43.048 307.604 41.928C307.436 40.752 306.96 39.352 306.176 37.728C304.776 35.376 303.124 34.2 301.22 34.2C298.98 34.2 297.132 35.348 295.676 37.644C294.836 39.044 294.276 40.584 293.996 42.264C293.716 43.944 293.604 45.372 293.66 46.548ZM322.718 72V67.548L329.858 65.868V37.644H322.718V33.192L336.158 30H342.794V34.116C346.21 30.532 350.438 28.74 355.478 28.74C357.662 28.74 359.622 29.076 361.358 29.748C363.15 30.364 364.634 31.26 365.81 32.436C367.042 33.612 367.994 35.012 368.666 36.636C369.338 38.26 369.674 40.024 369.674 41.928V65.868L376.814 67.548V72H351.278V67.548L356.738 65.868V44.28C356.738 42.544 356.626 41.144 356.402 40.08C356.234 39.016 355.926 38.204 355.478 37.644C355.03 37.028 354.414 36.636 353.63 36.468C352.902 36.244 351.978 36.132 350.858 36.132C348.73 36.132 346.042 37.364 342.794 39.828V65.868L348.254 67.548V72H322.718ZM373.593 94.008C376.561 91.488 378.773 88.52 380.229 85.104C381.685 81.688 382.413 77.32 382.413 72V37.644H375.273V33.192L388.713 30H395.349V72C395.349 83.2 389.245 92.132 377.037 98.796L373.593 94.008ZM381.069 17.064C381.069 14.88 381.825 13.06 383.337 11.604C384.849 10.092 386.697 9.336 388.881 9.336C391.121 9.336 392.969 10.092 394.425 11.604C395.937 13.06 396.693 14.88 396.693 17.064C396.693 19.304 395.937 21.18 394.425 22.692C392.969 24.204 391.121 24.96 388.881 24.96C386.697 24.96 384.849 24.204 383.337 22.692C381.825 21.18 381.069 19.304 381.069 17.064ZM423.422 73.26C420.23 73.26 417.234 72.7 414.434 71.58C411.69 70.46 409.31 68.92 407.294 66.96C405.278 65 403.682 62.648 402.506 59.904C401.33 57.16 400.742 54.164 400.742 50.916C400.742 47.668 401.33 44.7 402.506 42.012C403.682 39.268 405.278 36.916 407.294 34.956C409.31 32.996 411.69 31.484 414.434 30.42C417.234 29.3 420.23 28.74 423.422 28.74C426.614 28.74 429.582 29.3 432.326 30.42C435.07 31.484 437.45 32.996 439.466 34.956C441.538 36.916 443.134 39.268 444.254 42.012C445.43 44.7 446.018 47.668 446.018 50.916C446.018 54.108 445.43 57.076 444.254 59.82C443.134 62.564 441.538 64.944 439.466 66.96C437.45 68.92 435.07 70.46 432.326 71.58C429.582 72.7 426.614 73.26 423.422 73.26ZM414.266 50.916C414.266 56.18 415.022 60.324 416.534 63.348C418.102 66.316 420.398 67.8 423.422 67.8C426.446 67.8 428.714 66.316 430.226 63.348C431.794 60.324 432.578 56.18 432.578 50.916C432.578 45.708 431.794 41.62 430.226 38.652C428.714 35.684 426.446 34.2 423.422 34.2C420.398 34.2 418.102 35.684 416.534 38.652C415.022 41.62 414.266 45.708 414.266 50.916ZM443.901 34.452V30H469.857V34.452L464.313 35.46L475.149 57.048L483.045 36.048L476.661 34.452V30H496.149V34.452L489.177 36.384L465.741 97.116H464.229C462.549 97.116 460.953 96.752 459.441 96.024C457.985 95.296 456.949 94.4 456.333 93.336L468.513 73.932L450.201 36.216L443.901 34.452ZM2.52 150.584C2.52 145.712 4.508 142.016 8.484 139.496C12.516 136.92 19.012 135.632 27.972 135.632V133.112C27.972 131.432 27.944 130.228 27.888 129.5C27.888 128.716 27.776 127.792 27.552 126.728C27.328 125.664 26.992 124.908 26.544 124.46C26.152 124.012 25.536 123.62 24.696 123.284C23.856 122.892 22.82 122.696 21.588 122.696L10.92 131.936C7.112 129.752 5.208 126.364 5.208 121.772L7.728 120.68C8.792 120.232 10.864 119.644 13.944 118.916C17.024 118.132 20.02 117.74 22.932 117.74C34.972 117.74 40.992 122.556 40.992 132.188V154.7H47.544V158.312C47.264 158.592 46.872 158.956 46.368 159.404C45.864 159.852 44.772 160.44 43.092 161.168C41.412 161.896 39.676 162.26 37.884 162.26C33.628 162.26 30.464 160.832 28.392 157.976C24.64 160.832 20.552 162.26 16.128 162.26C12.264 162.26 9.016 161.28 6.384 159.32C3.808 157.36 2.52 154.448 2.52 150.584ZM16.044 149.828C16.044 151.452 16.576 152.74 17.64 153.692C18.76 154.644 20.104 155.12 21.672 155.12C24.192 155.12 26.292 154.196 27.972 152.348V140.84C24.836 140.84 22.064 141.68 19.656 143.36C17.248 144.984 16.044 147.14 16.044 149.828ZM47.2303 161V156.548L54.3703 154.868V126.644H47.2303V122.192L60.6703 119H67.3063V123.116C70.7223 119.532 74.9503 117.74 79.9903 117.74C82.1743 117.74 84.1343 118.076 85.8703 118.748C87.6623 119.364 89.1463 120.26 90.3223 121.436C91.5543 122.612 92.5063 124.012 93.1783 125.636C93.8503 127.26 94.1863 129.024 94.1863 130.928V154.868L101.326 156.548V161H75.7903V156.548L81.2503 154.868V133.28C81.2503 131.544 81.1383 130.144 80.9143 129.08C80.7463 128.016 80.4383 127.204 79.9903 126.644C79.5423 126.028 78.9263 125.636 78.1423 125.468C77.4143 125.244 76.4903 125.132 75.3703 125.132C73.2423 125.132 70.5543 126.364 67.3063 128.828V154.868L72.7663 156.548V161H47.2303ZM101.466 141.512C101.466 133.952 103.846 128.1 108.606 123.956C113.422 119.812 119.274 117.74 126.162 117.74C127.898 117.74 129.522 117.908 131.034 118.244V101.444H123.894V96.992L137.334 93.8H144.054V154.7H150.606V158.312C150.27 158.592 149.794 158.956 149.178 159.404C148.618 159.852 147.47 160.44 145.734 161.168C143.998 161.896 142.346 162.26 140.778 162.26C138.426 162.26 136.438 161.7 134.814 160.58C133.246 159.46 132.126 158.256 131.454 156.968C128.374 160.496 124.594 162.26 120.114 162.26C115.018 162.26 110.622 160.496 106.926 156.968C103.286 153.384 101.466 148.232 101.466 141.512ZM114.738 141.176C114.738 145.768 115.718 149.24 117.678 151.592C119.694 153.944 121.682 155.12 123.642 155.12C126.442 155.12 128.906 154.084 131.034 152.012V123.788C129.466 123.396 128.094 123.2 126.918 123.2C123.222 123.2 120.254 124.684 118.014 127.652C115.83 130.564 114.738 135.072 114.738 141.176ZM165.007 161V156.548L172.147 154.868V101.444H165.007V96.992L178.447 93.8H185.083V154.868L192.223 156.548V161H165.007ZM192.603 161V156.548L199.743 154.868V126.644H192.603V122.192L206.043 119H212.679V154.868L219.819 156.548V161H192.603ZM198.399 106.064C198.399 103.88 199.155 102.06 200.667 100.604C202.179 99.092 204.027 98.336 206.211 98.336C208.451 98.336 210.299 99.092 211.755 100.604C213.267 102.06 214.023 103.88 214.023 106.064C214.023 108.304 213.267 110.18 211.755 111.692C210.299 113.204 208.451 113.96 206.211 113.96C204.027 113.96 202.179 113.204 200.667 111.692C199.155 110.18 198.399 108.304 198.399 106.064ZM216.492 123.452V119H242.196V123.452L236.484 124.796L244.968 144.872L253.284 124.88L247.74 123.452V119H265.968V123.452L258.912 125.3L243.96 161.588H238.08L222.54 125.216L216.492 123.452ZM263.986 139.496C263.986 132.888 265.834 127.624 269.53 123.704C273.282 119.728 278.35 117.74 284.734 117.74C291.23 117.74 296.13 119.952 299.434 124.376C302.794 128.8 304.474 134.26 304.474 140.756H276.922C277.314 144.9 278.798 148.484 281.374 151.508C283.95 154.476 287.254 155.96 291.286 155.96C294.31 155.96 297.558 155.316 301.03 154.028L302.794 158.816C297.586 161.112 292.49 162.26 287.506 162.26C280.282 162.26 274.542 160.16 270.286 155.96C266.086 151.704 263.986 146.216 263.986 139.496ZM276.922 135.548L291.118 134.624C291.118 133.28 291.034 132.048 290.866 130.928C290.698 129.752 290.222 128.352 289.438 126.728C288.038 124.376 286.386 123.2 284.482 123.2C282.242 123.2 280.394 124.348 278.938 126.644C278.098 128.044 277.538 129.584 277.258 131.264C276.978 132.944 276.866 134.372 276.922 135.548ZM321.323 150.584C321.323 145.712 323.311 142.016 327.287 139.496C331.319 136.92 337.815 135.632 346.775 135.632V133.112C346.775 131.432 346.747 130.228 346.691 129.5C346.691 128.716 346.579 127.792 346.355 126.728C346.131 125.664 345.795 124.908 345.347 124.46C344.955 124.012 344.339 123.62 343.499 123.284C342.659 122.892 341.623 122.696 340.391 122.696L329.723 131.936C325.915 129.752 324.011 126.364 324.011 121.772L326.531 120.68C327.595 120.232 329.667 119.644 332.747 118.916C335.827 118.132 338.823 117.74 341.735 117.74C353.775 117.74 359.795 122.556 359.795 132.188V154.7H366.347V158.312C366.067 158.592 365.675 158.956 365.171 159.404C364.667 159.852 363.575 160.44 361.895 161.168C360.215 161.896 358.479 162.26 356.687 162.26C352.431 162.26 349.267 160.832 347.195 157.976C343.443 160.832 339.355 162.26 334.931 162.26C331.067 162.26 327.819 161.28 325.187 159.32C322.611 157.36 321.323 154.448 321.323 150.584ZM334.847 149.828C334.847 151.452 335.379 152.74 336.443 153.692C337.563 154.644 338.907 155.12 340.475 155.12C342.995 155.12 345.095 154.196 346.775 152.348V140.84C343.639 140.84 340.867 141.68 338.459 143.36C336.051 144.984 334.847 147.14 334.847 149.828ZM381.376 161V156.548L388.516 154.868V126.644H381.376V122.192L394.816 119H401.452V123.116C404.868 119.532 409.096 117.74 414.136 117.74C416.32 117.74 418.28 118.076 420.016 118.748C421.808 119.364 423.292 120.26 424.468 121.436C425.7 122.612 426.652 124.012 427.324 125.636C427.996 127.26 428.332 129.024 428.332 130.928V154.868L435.472 156.548V161H409.936V156.548L415.396 154.868V133.28C415.396 131.544 415.284 130.144 415.06 129.08C414.892 128.016 414.584 127.204 414.136 126.644C413.688 126.028 413.072 125.636 412.288 125.468C411.56 125.244 410.636 125.132 409.516 125.132C407.388 125.132 404.7 126.364 401.452 128.828V154.868L406.912 156.548V161H381.376ZM435.612 139.496C435.612 132.888 437.46 127.624 441.156 123.704C444.908 119.728 449.976 117.74 456.36 117.74C462.856 117.74 467.756 119.952 471.06 124.376C474.42 128.8 476.1 134.26 476.1 140.756H448.548C448.94 144.9 450.424 148.484 453 151.508C455.576 154.476 458.88 155.96 462.912 155.96C465.936 155.96 469.184 155.316 472.656 154.028L474.42 158.816C469.212 161.112 464.116 162.26 459.132 162.26C451.908 162.26 446.168 160.16 441.912 155.96C437.712 151.704 435.612 146.216 435.612 139.496ZM448.548 135.548L462.744 134.624C462.744 133.28 462.66 132.048 462.492 130.928C462.324 129.752 461.848 128.352 461.064 126.728C459.664 124.376 458.012 123.2 456.108 123.2C453.868 123.2 452.02 124.348 450.564 126.644C449.724 128.044 449.164 129.584 448.884 131.264C448.604 132.944 448.492 134.372 448.548 135.548ZM474.341 123.452V119H499.709V123.452L493.745 124.964L500.633 143.444L508.865 119H517.433L526.085 143.108L532.301 124.964L525.581 123.452V119H544.649V123.452L537.845 125.3L525.749 161.588H518.861L509.285 134.792L500.297 161.588H493.409L479.969 124.964L474.341 123.452ZM2.52 239.584C2.52 234.712 4.508 231.016 8.484 228.496C12.516 225.92 19.012 224.632 27.972 224.632V222.112C27.972 220.432 27.944 219.228 27.888 218.5C27.888 217.716 27.776 216.792 27.552 215.728C27.328 214.664 26.992 213.908 26.544 213.46C26.152 213.012 25.536 212.62 24.696 212.284C23.856 211.892 22.82 211.696 21.588 211.696L10.92 220.936C7.112 218.752 5.208 215.364 5.208 210.772L7.728 209.68C8.792 209.232 10.864 208.644 13.944 207.916C17.024 207.132 20.02 206.74 22.932 206.74C34.972 206.74 40.992 211.556 40.992 221.188V243.7H47.544V247.312C47.264 247.592 46.872 247.956 46.368 248.404C45.864 248.852 44.772 249.44 43.092 250.168C41.412 250.896 39.676 251.26 37.884 251.26C33.628 251.26 30.464 249.832 28.392 246.976C24.64 249.832 20.552 251.26 16.128 251.26C12.264 251.26 9.016 250.28 6.384 248.32C3.808 246.36 2.52 243.448 2.52 239.584ZM16.044 238.828C16.044 240.452 16.576 241.74 17.64 242.692C18.76 243.644 20.104 244.12 21.672 244.12C24.192 244.12 26.292 243.196 27.972 241.348V229.84C24.836 229.84 22.064 230.68 19.656 232.36C17.248 233.984 16.044 236.14 16.044 238.828ZM47.2303 250V245.548L54.3703 243.868V215.644H47.2303V211.192L60.6703 208H67.3063V212.116C70.7223 208.532 74.9503 206.74 79.9903 206.74C82.1743 206.74 84.1343 207.076 85.8703 207.748C87.6623 208.364 89.1463 209.26 90.3223 210.436C91.5543 211.612 92.5063 213.012 93.1783 214.636C93.8503 216.26 94.1863 218.024 94.1863 219.928V243.868L101.326 245.548V250H75.7903V245.548L81.2503 243.868V222.28C81.2503 220.544 81.1383 219.144 80.9143 218.08C80.7463 217.016 80.4383 216.204 79.9903 215.644C79.5423 215.028 78.9263 214.636 78.1423 214.468C77.4143 214.244 76.4903 214.132 75.3703 214.132C73.2423 214.132 70.5543 215.364 67.3063 217.828V243.868L72.7663 245.548V250H47.2303ZM101.466 230.512C101.466 222.952 103.846 217.1 108.606 212.956C113.422 208.812 119.274 206.74 126.162 206.74C127.898 206.74 129.522 206.908 131.034 207.244V190.444H123.894V185.992L137.334 182.8H144.054V243.7H150.606V247.312C150.27 247.592 149.794 247.956 149.178 248.404C148.618 248.852 147.47 249.44 145.734 250.168C143.998 250.896 142.346 251.26 140.778 251.26C138.426 251.26 136.438 250.7 134.814 249.58C133.246 248.46 132.126 247.256 131.454 245.968C128.374 249.496 124.594 251.26 120.114 251.26C115.018 251.26 110.622 249.496 106.926 245.968C103.286 242.384 101.466 237.232 101.466 230.512ZM114.738 230.176C114.738 234.768 115.718 238.24 117.678 240.592C119.694 242.944 121.682 244.12 123.642 244.12C126.442 244.12 128.906 243.084 131.034 241.012V212.788C129.466 212.396 128.094 212.2 126.918 212.2C123.222 212.2 120.254 213.684 118.014 216.652C115.83 219.564 114.738 224.072 114.738 230.176ZM166.015 250V245.548L173.155 243.868V213.376H166.099V208.588L173.155 208.084V201.784C173.155 195.232 174.639 190.22 177.607 186.748C180.631 183.276 184.943 181.54 190.543 181.54C192.895 181.54 195.359 181.792 197.935 182.296C200.511 182.744 202.499 183.192 203.899 183.64L205.999 184.312C206.055 186.272 205.579 188.204 204.572 190.108C203.619 191.956 202.387 193.272 200.876 194.056L193.903 187C192.783 187 191.803 187.168 190.963 187.504C190.179 187.84 189.367 188.484 188.527 189.436C187.743 190.388 187.127 191.9 186.679 193.972C186.287 196.044 186.091 198.648 186.091 201.784V207.244L197.599 206.488V213.376H186.091V243.868L196.003 245.548V250H166.015ZM196.827 212.452V208H216.903V236.98C216.903 239.836 217.239 241.824 217.911 242.944C218.639 244.008 220.067 244.54 222.195 244.54C223.819 244.54 225.499 244.12 227.235 243.28C228.971 242.44 230.371 241.32 231.435 239.92V214.132L225.975 212.452V208H244.455V243.7H251.007V247.312C249.775 248.152 248.767 248.768 247.983 249.16C247.255 249.496 246.415 249.832 245.463 250.168C244.567 250.56 243.615 250.84 242.607 251.008C241.655 251.176 240.759 251.26 239.919 251.26C235.887 251.26 233.059 249.44 231.435 245.8C227.459 249.44 222.587 251.26 216.819 251.26C208.251 251.26 203.967 246.864 203.967 238.072V214.132L196.827 212.452ZM249.998 250V245.548L257.138 243.868V190.444H249.998V185.992L263.438 182.8H270.074V243.868L277.214 245.548V250H249.998ZM276.334 250V245.548L283.474 243.868V190.444H276.334V185.992L289.774 182.8H296.41V243.868L303.55 245.548V250H276.334ZM318.012 250V245.548L325.152 243.868V190.444H318.012V185.992L331.452 182.8H338.088V243.868L345.228 245.548V250H318.012ZM345.607 250V245.548L352.747 243.868V215.644H345.607V211.192L359.047 208H365.683V243.868L372.823 245.548V250H345.607ZM351.403 195.064C351.403 192.88 352.159 191.06 353.671 189.604C355.183 188.092 357.031 187.336 359.215 187.336C361.455 187.336 363.303 188.092 364.759 189.604C366.271 191.06 367.027 192.88 367.027 195.064C367.027 197.304 366.271 199.18 364.759 200.692C363.303 202.204 361.455 202.96 359.215 202.96C357.031 202.96 355.183 202.204 353.671 200.692C352.159 199.18 351.403 197.304 351.403 195.064ZM373.003 250V245.548L380.143 243.868V213.376H373.087V208.588L380.143 208.084V201.784C380.143 195.232 381.627 190.22 384.595 186.748C387.619 183.276 391.931 181.54 397.531 181.54C399.883 181.54 402.347 181.792 404.923 182.296C407.499 182.744 409.487 183.192 410.887 183.64L412.987 184.312C413.043 186.272 412.567 188.204 411.559 190.108C410.607 191.956 409.375 193.272 407.863 194.056L400.891 187C399.771 187 398.791 187.168 397.951 187.504C397.167 187.84 396.355 188.484 395.515 189.436C394.731 190.388 394.115 191.9 393.667 193.972C393.275 196.044 393.079 198.648 393.079 201.784V207.244L404.587 206.488V213.376H393.079V243.868L402.991 245.548V250H373.003ZM404.932 228.496C404.932 221.888 406.78 216.624 410.476 212.704C414.228 208.728 419.296 206.74 425.68 206.74C432.176 206.74 437.076 208.952 440.38 213.376C443.74 217.8 445.42 223.26 445.42 229.756H417.868C418.26 233.9 419.744 237.484 422.32 240.508C424.896 243.476 428.2 244.96 432.232 244.96C435.256 244.96 438.504 244.316 441.976 243.028L443.74 247.816C438.532 250.112 433.436 251.26 428.452 251.26C421.228 251.26 415.488 249.16 411.232 244.96C407.032 240.704 404.932 235.216 404.932 228.496ZM417.868 224.548L432.064 223.624C432.064 222.28 431.98 221.048 431.812 219.928C431.644 218.752 431.168 217.352 430.384 215.728C428.984 213.376 427.332 212.2 425.428 212.2C423.188 212.2 421.34 213.348 419.884 215.644C419.044 217.044 418.484 218.584 418.204 220.264C417.924 221.944 417.812 223.372 417.868 224.548Z" fill="#181E4B"/>
</svg>
